<svg xmlns="http://www.w3.org/2000/svg" viewBox="0 0 200 200" width="100%" height="100%">
  <rect width="100%" height="100%" fill="none"/>
  
  <path d="M 50,60 L 20,10 C 25,5 35,5 45,20 L 70,65 Z" fill="#F4CB43" stroke="#000" stroke-width="3" stroke-linejoin="round"/>
  <path d="M 20,10 C 23,7 28,6 33,12 L 40,25 L 28,22 Z" fill="#000"/>
  
  <path d="M 150,60 L 180,10 C 175,5 165,5 155,20 L 130,65 Z" fill="#F4CB43" stroke="#000" stroke-width="3" stroke-linejoin="round"/>
  <path d="M 180,10 C 177,7 172,6 167,12 L 160,25 L 172,22 Z" fill="#000"/>

  <ellipse cx="100" cy="105" rx="55" ry="48" fill="#F4CB43" stroke="#000" stroke-width="3"/>

  <circle cx="70" cy="95" r="9" fill="#231F20"/>
  <circle cx="67" cy="91" r="3" fill="#FFF"/>
  <circle cx="130" cy="95" r="9" fill="#231F20"/>
  <circle cx="127" cy="91" r="3" fill="#FFF"/>

  <polygon points="98,104 102,104 100,107" fill="#000" stroke="#000" stroke-width="1"/>

  <path d="M 90,113 Q 95,118 100,113 Q 105,118 110,113" fill="none" stroke="#000" stroke-width="2.5" stroke-linecap="round"/>

  <circle cx="53" cy="116" r="11" fill="#E64A2A"/>
  <circle cx="147" cy="116" r="11" fill="#E64A2A"/>
</svg>
